<svg xmlns="http://www.w3.org/2000/svg" width="708.481" height="150" viewBox="0 0 708.481 150">
  <g id="Thinxpro" transform="translate(-391.978 -454)">
    <g id="icon" transform="translate(392.478 454)">
      <path id="Gear" d="M-4046.082-4808.078H-4115V-4877h68.918v68.921Zm-46.581-20.2h0a18.967,18.967,0,0,0,5.684,3.26l1.386,6.85h10.1l1.387-6.848a18.766,18.766,0,0,0,5.687-3.261l6.729,2.247,5.066-8.655-5.337-4.625a18.286,18.286,0,0,0,.3-3.232,18.219,18.219,0,0,0-.3-3.227l5.337-4.626-5.066-8.652-6.732,2.242a19.068,19.068,0,0,0-5.684-3.26l-1.387-6.85h-10.1l-1.386,6.847a18.812,18.812,0,0,0-5.686,3.259l-6.733-2.238-5.063,8.652,5.336,4.626a18.2,18.2,0,0,0-.294,3.227,18.087,18.087,0,0,0,.294,3.228l-5.336,4.626,5.063,8.654,6.733-2.245Zm12.122-4.229a10.047,10.047,0,0,1-10.039-10.034,10.049,10.049,0,0,1,10.039-10.036,10.047,10.047,0,0,1,10.035,10.036A10.045,10.045,0,0,1-4080.541-4832.507Z" transform="translate(4196.081 4877)" fill="#d60021"/>
      <path id="Corner" d="M0,0H68.918V68.918A68.918,68.918,0,0,1,0,0Z" transform="translate(0 81.082)" fill="#d60021"/>
      <path id="Wifi" d="M-4293.5-4698.583c-.381,0-.7,0-1-.007v-11.987c.379.008.719.008,1,.008a56,56,0,0,0,55.932-55.931c0-.313,0-.63-.01-1h11.986c0,.313,0,.642,0,1a67.481,67.481,0,0,1-5.335,26.437,67.64,67.64,0,0,1-14.556,21.587,67.69,67.69,0,0,1-21.586,14.556A67.488,67.488,0,0,1-4293.5-4698.583Zm0-23.969c-.323,0-.661,0-1-.012v-11.993c.29.009.616.016,1,.016a32,32,0,0,0,31.958-31.96c0-.354,0-.691-.015-1h11.99c.007.38.011.694.011,1a43.641,43.641,0,0,1-3.453,17.106,43.855,43.855,0,0,1-9.418,13.971,43.8,43.8,0,0,1-13.969,9.417A43.649,43.649,0,0,1-4293.5-4722.551Zm0-23.974c-.339,0-.675-.007-1-.025v-20.95h20.95c.019.357.025.692.025,1A20,20,0,0,1-4293.5-4746.525Z" transform="translate(4375.58 4848.581)" fill="#d60021"/>
      <path id="Path_154135" data-name="Path 154135" d="M0,0H28.378V28.378H0Z" transform="translate(0 0.001)" fill="#d60021"/>
      <path id="Path_154133" data-name="Path 154133" d="M14.189,0A14.189,14.189,0,1,1,0,14.189,14.189,14.189,0,0,1,14.189,0Z" transform="translate(40.54 0.001)" fill="#d60021"/>
      <path id="Path_154132" data-name="Path 154132" d="M10.135,0H28.378V28.378H0V10.135A10.135,10.135,0,0,1,10.135,0Z" transform="translate(40.54 40.541)" fill="#d60021"/>
      <path id="Path_154159" data-name="Path 154159" d="M15,0,30,11.077,24.271,29H5.729L0,11.077Z" transform="translate(-0.5 40)" fill="#d60021"/>
    </g>
    <g id="Text" transform="translate(164.478 444)">
      <path id="Path_154137" data-name="Path 154137" d="M-2618.033-3265h-16.152l-20.183-24.479-16.412-19.959L-2688.473-3331h16.065l18.19,22.346,17.907-22.346h15.874l-25.844,31.842,28.249,34.153,0,0Zm-56.217,0h-16.063l19.948-24.363,7.94,9.8L-2674.25-3265Zm193.232-33a33,33,0,0,1,33-33,33,33,0,0,1,33,33,33,33,0,0,1-33,33A33,33,0,0,1-2481.019-3298Zm12.667,0a20.356,20.356,0,0,0,20.333,20.333A20.356,20.356,0,0,0-2427.686-3298a20.356,20.356,0,0,0-20.333-20.333A20.356,20.356,0,0,0-2468.352-3298Zm-19.817,33h-14.571l-12.564-22.666h-17.609v22.485h-12.722v-22.485h-.049V-3331h36.332a21.666,21.666,0,0,1,21.667,21.665,21.675,21.675,0,0,1-13.383,20.027q-.216.109-.457.21l13.358,24.1h0Zm-44.744-35.334h23.561a9.01,9.01,0,0,0,9-9,9.009,9.009,0,0,0-9-9h-23.561ZM-2711.265-3265l-38.486-45.865v45.686h0l-12.435,0V-3331h12.181l38.089,45.391V-3331h12.437v65.814h-.1v.185h-11.684Zm-143.971-.179-12.718,0V-3331h12.721v26.7h34.157V-3331h12.721v65.814l-12.721,0V-3291.4h-34.157v26.22Zm76.322,0h-12.718V-3331h12.72v65.817Zm-124,0h-12.719v-53.073H-2939V-3331h59.172v12.745h-23.084v53.073Zm305.329,0H-2610.3v-22.484h-.05V-3331h36.334a21.667,21.667,0,0,1,21.665,21.667,21.666,21.666,0,0,1-21.665,21.666h-23.563v22.483h0Zm0-35.15h23.563a9.01,9.01,0,0,0,9-9,9.011,9.011,0,0,0-9-9h-23.563Z" transform="translate(3351 3383)" fill="#d60021"/>
      <path id="Path_154161" data-name="Path 154161" d="M10,0A10,10,0,1,1,0,10,10,10,0,0,1,10,0Z" transform="translate(893 75)" fill="#d60021"/>
    </g>
  </g>
</svg>
