<svg id="icon" xmlns="http://www.w3.org/2000/svg" width="300.997" height="300" viewBox="0 0 300.997 300">
  <path id="Gear" d="M-3977.164-4739.155v0H-4115V-4877h137.835v137.844Zm-93.162-40.4h0a37.969,37.969,0,0,0,11.367,6.518l2.773,13.7h20.2l2.774-13.7a37.447,37.447,0,0,0,11.374-6.522l13.458,4.5,10.131-17.31-10.674-9.249a36.62,36.62,0,0,0,.591-6.465,36.512,36.512,0,0,0-.591-6.455l10.674-9.25-10.131-17.3-13.465,4.481a38.122,38.122,0,0,0-11.367-6.52l-2.774-13.7h-20.2l-2.773,13.7a37.61,37.61,0,0,0-11.37,6.518l-13.466-4.475-10.125,17.3,10.671,9.25a36.522,36.522,0,0,0-.588,6.455,36.19,36.19,0,0,0,.588,6.454l-10.671,9.254,10.125,17.308,13.466-4.488Zm24.244-8.458a20.1,20.1,0,0,1-20.078-20.069,20.1,20.1,0,0,1,20.078-20.072,20.093,20.093,0,0,1,20.071,20.072A20.091,20.091,0,0,1-4046.082-4788.013Z" transform="translate(4278.161 4876.999)" fill="#d60021"/>
  <path id="Corner" d="M0,0H137.837V137.837A137.837,137.837,0,0,1,0,0Z" transform="translate(1 162.163)" fill="#d60021"/>
  <path id="Wifi" d="M-4292.5-4629.667c-.761,0-1.4-.006-2-.014v-23.974c.758.015,1.438.015,2,.015A111.99,111.99,0,0,0-4180.632-4765.5c0-.625-.006-1.257-.019-2h23.97c.008.626.01,1.282.01,2a134.937,134.937,0,0,1-10.67,52.874,135.311,135.311,0,0,1-29.11,43.175,135.385,135.385,0,0,1-43.173,29.11A134.959,134.959,0,0,1-4292.5-4629.667Zm0-47.937c-.644,0-1.319-.006-2-.025v-23.984c.579.017,1.232.034,2,.034a64,64,0,0,0,63.918-63.924c0-.708-.009-1.38-.03-2h23.982c.011.757.019,1.39.019,2a87.316,87.316,0,0,1-6.9,34.214,87.7,87.7,0,0,1-18.838,27.94,87.614,87.614,0,0,1-27.937,18.836A87.325,87.325,0,0,1-4292.5-4677.6Zm0-47.947c-.678,0-1.35-.017-2-.049v-41.9h41.9c.038.714.049,1.382.049,2A39.991,39.991,0,0,1-4292.5-4725.55Z" transform="translate(4457.66 4929.663)" fill="#d60021"/>
  <path id="Path_154135" data-name="Path 154135" d="M0,0H56.756V56.756H0Z" transform="translate(1 0.002)" fill="#d60021"/>
  <path id="Path_154133" data-name="Path 154133" d="M28.378,0A28.378,28.378,0,1,1,0,28.378,28.378,28.378,0,0,1,28.378,0Z" transform="translate(82.08 0.002)" fill="#d60021"/>
  <path id="Path_154132" data-name="Path 154132" d="M20.27,0H56.756V56.756H0V20.27A20.27,20.27,0,0,1,20.27,0Z" transform="translate(82.08 81.082)" fill="#d60021"/>
  <path id="Path_154159" data-name="Path 154159" d="M34.77,0,69.54,25.677,56.259,67.222H13.281L0,25.677Z" transform="translate(0 76.951)" fill="#d60021"/>
</svg>
